<svg xmlns="http://www.w3.org/2000/svg" width="100" height="100"><g transform="translate(92.78 -288.593)"><rect width="63.214" height="40.714" x="-73.879" y="317.729" fill="#f9f9f9" fill-rule="evenodd" stroke="#000" stroke-linecap="round" stroke-linejoin="round" stroke-width=".8" rx="3.599" ry="3.599"/><g style="line-height:125%;-inkscape-font-specification:'Segoe WP Black, Ultra-Bold'"><path d="M-54.464 346.854c-.21.075-.48.161-.81.258-.332.096-.715.184-1.15.263-.436.08-.922.147-1.458.201-.536.055-1.118.082-1.746.082-1.6 0-2.982-.239-4.146-.716-1.164-.477-2.123-1.122-2.877-1.935a7.783 7.783 0 0 1-1.677-2.833 10.605 10.605 0 0 1-.547-3.423c0-1.424.23-2.73.691-3.92a8.824 8.824 0 0 1 1.979-3.078c.858-.863 1.897-1.533 3.116-2.01 1.218-.478 2.586-.717 4.102-.717 1.047 0 1.95.065 2.707.195.758.13 1.363.254 1.816.37v5.014a5.924 5.924 0 0 0-.673-.333 7.126 7.126 0 0 0-.892-.308 9.013 9.013 0 0 0-1.086-.226 8.538 8.538 0 0 0-1.257-.088c-.628 0-1.231.09-1.809.27a4.11 4.11 0 0 0-1.52.848 4.138 4.138 0 0 0-1.043 1.47c-.26.595-.39 1.302-.39 2.123 0 .695.105 1.33.315 1.904.21.573.515 1.063.917 1.47.402.406.894.722 1.476.948.582.226 1.242.34 1.979.34.427 0 .835-.032 1.225-.095.39-.063.752-.144 1.087-.245.335-.1.642-.21.923-.327.28-.117.53-.23.748-.339zM-34.501 338.286c0 1.432-.235 2.724-.704 3.876-.469 1.151-1.116 2.135-1.94 2.952a8.559 8.559 0 0 1-2.903 1.884c-1.11.44-2.305.66-3.587.66-1.24 0-2.406-.21-3.499-.628a8.466 8.466 0 0 1-2.864-1.803c-.817-.783-1.462-1.736-1.935-2.858-.473-1.123-.71-2.387-.71-3.794s.226-2.697.679-3.87c.452-1.173 1.084-2.18 1.897-3.021a8.464 8.464 0 0 1 2.92-1.96c1.136-.465 2.386-.698 3.751-.698 1.29 0 2.48.216 3.568.647a8.065 8.065 0 0 1 2.814 1.847c.788.8 1.403 1.772 1.847 2.915.444 1.143.666 2.427.666 3.85zm-5.754.15c0-.77-.078-1.453-.233-2.047-.155-.595-.372-1.096-.653-1.502a2.88 2.88 0 0 0-1.005-.923 2.702 2.702 0 0 0-1.3-.314c-.612 0-1.135.125-1.57.377-.436.25-.792.59-1.069 1.017a4.517 4.517 0 0 0-.603 1.495 8.442 8.442 0 0 0-.188 1.822c0 .838.092 1.552.276 2.142.185.59.432 1.072.742 1.445s.665.645 1.067.817c.402.171.821.257 1.257.257.419 0 .825-.09 1.218-.27.394-.18.744-.456 1.05-.83.305-.372.55-.847.734-1.425.185-.578.277-1.265.277-2.06zM-14.952 338.11c0 1.407-.224 2.68-.672 3.82-.448 1.138-1.08 2.108-1.897 2.908-.817.8-1.801 1.417-2.953 1.853-1.152.435-2.43.653-3.838.653h-7.626v-18.016h7.463c1.214 0 2.292.103 3.235.308.942.205 1.767.496 2.475.873.707.377 1.302.83 1.784 1.357a6.903 6.903 0 0 1 1.174 1.771c.302.653.52 1.357.654 2.11.134.755.2 1.542.2 2.363zm-5.767.05c0-.586-.088-1.156-.264-1.709a4.258 4.258 0 0 0-.804-1.47 3.9 3.9 0 0 0-1.37-1.023c-.552-.256-1.205-.384-1.96-.384h-1.394v9.524h1.52c.662 0 1.257-.12 1.785-.359a3.81 3.81 0 0 0 1.344-1.005c.368-.43.651-.95.848-1.557.197-.608.295-1.28.295-2.017z" style="text-align:start;line-height:125%;-inkscape-font-specification:'Segoe WP Black, Ultra-Bold'" fill="#265697" font-family="Segoe WP Black" font-size="25.73" font-weight="800" letter-spacing="0" word-spacing="0"/></g></g></svg>